<svg width="132" height="90" fill="none" xmlns="http://www.w3.org/2000/svg"><path d="M27.3 17.1h11.2L63.7 82H53.6l-7.4-19.7H18.4L11.1 82H1.5l25.8-64.9zm16.5 38.5l-11-29.3h-.9l-11 29.3h22.9zM101.534 83c-3.066 0-5.8-.133-8.2-.4-2.333-.267-4.8-.767-7.4-1.5-2.933-.8-5.4-1.8-7.4-3-2-1.267-3.633-2.967-4.9-5.1-1.333-2.267-2-4.8-2-7.6V34.7c0-3.733.967-6.933 2.9-9.6 1.934-2.667 4.6-4.6 8-5.8 3.267-1.133 6.367-1.933 9.3-2.4 3-.533 6.234-.8 9.7-.8 8.267 0 15.734.533 22.4 1.6v7.5c-2.533-.6-6.166-1.133-10.9-1.6-4.666-.533-8.433-.8-11.3-.8-13.666 0-20.5 3.933-20.5 11.8v30.6c0 2.133.634 4 1.9 5.6 1.334 1.6 3.134 2.767 5.4 3.5 2.134.8 4.267 1.367 6.4 1.7 2.134.267 4.534.4 7.2.4 4.467 0 9.234-.6 14.3-1.8V51.9h-15.2v-6.8h24.2V80c-8.666 2-16.633 3-23.9 3z" fill="url(#paint0_linear)"/><defs><linearGradient id="paint0_linear" x1="66" y1="-35" x2="66" y2="90" gradientUnits="userSpaceOnUse"><stop stop-color="#586265"/><stop offset="1" stop-color="#61A5BB"/></linearGradient></defs></svg>