<svg width="132" height="90" viewBox="0 0 132 90" fill="none" xmlns="http://www.w3.org/2000/svg">
<path d="M27.3 17.1H38.5L63.7 82H53.6L46.2 62.3H18.4L11.1 82H1.5L27.3 17.1ZM43.8 55.6L32.8 26.3H31.9L20.9 55.6H43.8ZM101.534 83C98.4677 83 95.7344 82.8667 93.3344 82.6C91.001 82.3333 88.5344 81.8333 85.9344 81.1C83.001 80.3 80.5344 79.3 78.5344 78.1C76.5344 76.8333 74.901 75.1333 73.6344 73C72.301 70.7333 71.6344 68.2 71.6344 65.4V34.7C71.6344 30.9667 72.601 27.7667 74.5344 25.1C76.4677 22.4333 79.1344 20.5 82.5344 19.3C85.801 18.1667 88.901 17.3667 91.8344 16.9C94.8344 16.3667 98.0677 16.1 101.534 16.1C109.801 16.1 117.268 16.6333 123.934 17.7V25.2C121.401 24.6 117.768 24.0667 113.034 23.6C108.368 23.0667 104.601 22.8 101.734 22.8C88.0677 22.8 81.2344 26.7333 81.2344 34.6V65.2C81.2344 67.3333 81.8677 69.2 83.1344 70.8C84.4677 72.4 86.2677 73.5667 88.5344 74.3C90.6677 75.1 92.801 75.6667 94.9344 76C97.0677 76.2667 99.4677 76.4 102.134 76.4C106.601 76.4 111.368 75.8 116.434 74.6V51.9H101.234V45.1H125.434V80C116.768 82 108.801 83 101.534 83Z" fill="url(#paint0_linear)"/>
<defs>
<linearGradient id="paint0_linear" x1="66" y1="-35" x2="66" y2="90" gradientUnits="userSpaceOnUse">
<stop stop-color="#586265"/>
<stop offset="1" stop-color="#61A5BB"/>
</linearGradient>
</defs>
</svg>
