<svg width="1309" height="194" viewBox="0 0 1309 194" fill="none" xmlns="http://www.w3.org/2000/svg">
<g opacity="0.8" filter="url(#filter0_i)">
<path d="M170.515 101.522C170.515 131.063 163.19 153.769 148.542 169.638C133.894 185.507 112.897 193.441 85.5537 193.441C58.21 193.441 37.2139 185.507 22.5654 169.638C7.91699 153.769 0.592773 130.982 0.592773 101.278C0.592773 71.5745 7.91699 48.9102 22.5654 33.2852C37.2952 17.5788 58.3727 9.72559 85.7979 9.72559C113.223 9.72559 134.178 17.6195 148.664 33.4072C163.231 49.195 170.515 71.9001 170.515 101.522ZM40.2656 101.522C40.2656 121.461 44.0498 136.475 51.6182 146.566C59.1865 156.658 70.4984 161.703 85.5537 161.703C115.746 161.703 130.842 141.643 130.842 101.522C130.842 61.3206 115.827 41.2197 85.7979 41.2197C70.7425 41.2197 59.39 46.306 51.7402 56.4785C44.0905 66.5697 40.2656 81.5843 40.2656 101.522ZM215.734 191V84.7988H196.081V58.9199H215.734V47.6895C215.734 32.8783 219.966 21.4036 228.43 13.2656C236.975 5.04622 248.897 0.936523 264.196 0.936523C269.079 0.936523 275.061 1.75033 282.141 3.37793L281.774 30.7217C278.845 29.9893 275.264 29.623 271.032 29.623C257.767 29.623 251.135 35.8486 251.135 48.2998V58.9199H294.592V52.8164C294.755 36.2148 299.841 23.4382 309.851 14.4863C319.942 5.45312 334.143 0.936523 352.453 0.936523C363.358 0.936523 376.745 3.33724 392.614 8.13867L387.487 37.3135C379.512 34.9535 373.286 33.4479 368.811 32.7969C364.416 32.0645 359.696 31.6982 354.65 31.6982C338.212 31.6982 329.992 38.9818 329.992 53.5488V58.9199H355.993V84.7988H329.992V191H294.592V84.7988H251.135V191H215.734ZM408.972 191H373.571V58.9199H408.972V191ZM500.7 164.999C507.211 164.999 512.5 163.209 516.569 159.628C520.638 156.047 522.754 151.286 522.917 145.346H555.998C555.917 154.298 553.475 162.517 548.674 170.004C543.872 177.41 537.281 183.188 528.898 187.338C520.598 191.407 511.402 193.441 501.311 193.441C482.43 193.441 467.538 187.46 456.633 175.497C445.728 163.453 440.275 146.851 440.275 125.692V123.373C440.275 103.028 445.687 86.7926 456.511 74.667C467.334 62.5413 482.186 56.4785 501.066 56.4785C517.587 56.4785 530.811 61.1986 540.739 70.6387C550.749 79.9974 555.835 92.4893 555.998 108.114H522.917C522.754 101.278 520.638 95.7445 516.569 91.5127C512.5 87.1995 507.129 85.043 500.456 85.043C492.237 85.043 486.011 88.054 481.779 94.0762C477.629 100.017 475.554 109.701 475.554 123.129V126.791C475.554 140.382 477.629 150.147 481.779 156.088C485.93 162.029 492.237 164.999 500.7 164.999ZM644.431 193.441C625.062 193.441 609.274 187.501 597.067 175.619C584.942 163.738 578.879 147.909 578.879 128.134V124.716C578.879 111.451 581.442 99.61 586.569 89.1934C591.696 78.6953 598.939 70.6387 608.298 65.0234C617.738 59.3268 628.48 56.4785 640.524 56.4785C658.591 56.4785 672.792 62.1751 683.127 73.5684C693.544 84.9616 698.752 101.116 698.752 122.03V136.435H614.646C615.785 145.061 619.203 151.978 624.899 157.187C630.677 162.395 637.961 164.999 646.75 164.999C660.34 164.999 670.961 160.076 678.61 150.229L695.944 169.638C690.655 177.125 683.493 182.984 674.46 187.216C665.427 191.366 655.417 193.441 644.431 193.441ZM640.402 85.043C633.404 85.043 627.707 87.403 623.312 92.123C618.999 96.8431 616.232 103.598 615.012 112.387H664.084V109.579C663.921 101.767 661.805 95.7445 657.736 91.5127C653.667 87.1995 647.889 85.043 640.402 85.043ZM868.239 131.796C866.856 150.92 859.776 165.976 846.999 176.962C834.304 187.948 817.539 193.441 796.706 193.441C773.92 193.441 755.975 185.792 742.873 170.492C729.852 155.111 723.342 134.034 723.342 107.26V96.3955C723.342 79.3057 726.353 64.2503 732.375 51.2295C738.397 38.2087 746.983 28.2396 758.132 21.3223C769.362 14.3236 782.383 10.8242 797.194 10.8242C817.702 10.8242 834.222 16.3174 846.755 27.3037C859.287 38.29 866.53 53.7116 868.483 73.5684H831.862C830.967 62.0938 827.753 53.793 822.219 48.666C816.766 43.4577 808.425 40.8535 797.194 40.8535C784.987 40.8535 775.832 45.248 769.729 54.0371C763.706 62.7448 760.614 76.2946 760.451 94.6865V108.114C760.451 127.32 763.34 141.358 769.118 150.229C774.978 159.099 784.174 163.534 796.706 163.534C808.018 163.534 816.441 160.971 821.975 155.844C827.59 150.635 830.804 142.619 831.618 131.796H868.239ZM976.569 177.572C967.862 188.152 955.817 193.441 940.437 193.441C926.276 193.441 915.453 189.372 907.966 181.234C900.56 173.096 896.776 161.174 896.613 145.468V58.9199H931.892V144.247C931.892 158 938.158 164.877 950.69 164.877C962.653 164.877 970.873 160.727 975.349 152.426V58.9199H1010.75V191H977.546L976.569 177.572ZM1163.88 126.181C1163.88 147.34 1159.36 163.86 1150.33 175.741C1141.3 187.541 1128.68 193.441 1112.49 193.441C1098.16 193.441 1086.73 187.948 1078.19 176.962L1076.6 191H1044.86V3.5H1080.14V70.7607C1088.28 61.2393 1098.98 56.4785 1112.24 56.4785C1128.36 56.4785 1140.97 62.4193 1150.08 74.3008C1159.28 86.1009 1163.88 102.743 1163.88 124.228V126.181ZM1128.6 123.617C1128.6 110.271 1126.48 100.546 1122.25 94.4424C1118.02 88.2575 1111.71 85.165 1103.33 85.165C1092.1 85.165 1084.37 89.763 1080.14 98.959V151.083C1084.45 160.36 1092.26 164.999 1103.58 164.999C1114.97 164.999 1122.46 159.384 1126.04 148.153C1127.75 142.782 1128.6 134.604 1128.6 123.617ZM1254.02 193.441C1234.65 193.441 1218.86 187.501 1206.66 175.619C1194.53 163.738 1188.47 147.909 1188.47 128.134V124.716C1188.47 111.451 1191.03 99.61 1196.16 89.1934C1201.29 78.6953 1208.53 70.6387 1217.89 65.0234C1227.33 59.3268 1238.07 56.4785 1250.11 56.4785C1268.18 56.4785 1282.38 62.1751 1292.72 73.5684C1303.13 84.9616 1308.34 101.116 1308.34 122.03V136.435H1224.24C1225.37 145.061 1228.79 151.978 1234.49 157.187C1240.27 162.395 1247.55 164.999 1256.34 164.999C1269.93 164.999 1280.55 160.076 1288.2 150.229L1305.53 169.638C1300.24 177.125 1293.08 182.984 1284.05 187.216C1275.02 191.366 1265.01 193.441 1254.02 193.441ZM1249.99 85.043C1242.99 85.043 1237.3 87.403 1232.9 92.123C1228.59 96.8431 1225.82 103.598 1224.6 112.387H1273.67V109.579C1273.51 101.767 1271.4 95.7445 1267.33 91.5127C1263.26 87.1995 1257.48 85.043 1249.99 85.043Z" fill="#BFBFBF"/>
</g>
<defs>
<filter id="filter0_i" x="0.592773" y="0.936523" width="1313.75" height="198.505" filterUnits="userSpaceOnUse" color-interpolation-filters="sRGB">
<feFlood flood-opacity="0" result="BackgroundImageFix"/>
<feBlend mode="normal" in="SourceGraphic" in2="BackgroundImageFix" result="shape"/>
<feColorMatrix in="SourceAlpha" type="matrix" values="0 0 0 0 0 0 0 0 0 0 0 0 0 0 0 0 0 0 127 0" result="hardAlpha"/>
<feOffset dx="6" dy="6"/>
<feGaussianBlur stdDeviation="3"/>
<feComposite in2="hardAlpha" operator="arithmetic" k2="-1" k3="1"/>
<feColorMatrix type="matrix" values="0 0 0 0 0.529167 0 0 0 0 0.529167 0 0 0 0 0.529167 0 0 0 1 0"/>
<feBlend mode="normal" in2="shape" result="effect1_innerShadow"/>
</filter>
</defs>
</svg>
